<svg version="1.1" xmlns="http://www.w3.org/2000/svg" viewBox="0 0 270 261" width="270" height="261" filter="invert(93%) hue-rotate(180deg)">
  <!-- svg-source:excalidraw -->
  Generated by Excalidraw-Obsidian plugin
  <defs>
    <style>
      @font-face {
        font-family: "Virgil";
        src: url("https://excalidraw.com/Virgil.woff2");
      }
      @font-face {
        font-family: "Cascadia";
        src: url("https://excalidraw.com/Cascadia.woff2");
      }
    </style>
  </defs>
  <g transform="translate(69 15) rotate(0 -5 26.5)" stroke="none" fill="#000000"><path d="M 2.6860524508245733 2.2298899256911695 Q 2.6860524508245733 2.2298899256911695 2.600122296976135 3.8246860939151643 2.514192143127697 5.419482262139159 2.600122296976135 3.8246860939151643 2.6860524508245733 2.2298899256911695 2.600122296976135 3.8246860939151643 2.514192143127697 5.419482262139159 2.045754685259067 7.485844554187205 1.5773172273904368 9.55220684623525 1.1109871338085455 11.817289239832903 0.6446570402266544 14.082371633430553 0.36691877609989837 16.516044783450774 0.08918051197314236 18.949717933470993 -0.4828262273847793 21.901317345945465 -1.054832966742701 24.85291675841994 -1.6423601093689548 27.823107768582247 -2.2298872519952084 30.793298778744557 -2.7546517067052885 33.60956543894247 -3.2794161614153685 36.42583209914037 -3.7009869284998853 38.768093432572364 -4.122557695584402 41.110354766004356 -4.578323375190799 43.39058579425399 -5.034089054797196 45.67081682250362 -5.512085456721136 47.64414442860101 -5.990081858645077 49.617472034698395 -7.298585174398209 52.31642759928319 -8.607088490151341 55.01538316386799 -9.713090277519559 55.12707197421415 -10.819092064887778 55.2387607845603 -11.559541750163493 54.409635578337905 -12.29999143543921 53.58051037211551 -12.06444045821033 52.4941264247264 -11.828889480981449 51.40774247733729 -10.811533014549301 50.95974675835447 -9.794176548117152 50.51175103937166 -8.833753270759633 51.07148443334425 -7.873329993402116 51.631217827316846 -7.761641183055959 52.73721961468506 -7.649952372709802 53.84322140205328 -8.479077578932197 54.583671087328995 -9.30820278515459 55.324120772604715 -10.394586732543704 55.08856979537583 -11.480970679932817 54.85301881814696 -11.92896639891563 53.8356623517148 -12.376962117898445 52.818305885282655 -11.817228723925854 51.857882607925134 -11.257495329953262 50.89745933056762 -10.612921105904794 49.59855810262424 -9.968346881856327 48.29965687468085 -9.38399807704275 46.5568977113017 -8.799649272229171 44.81413854792256 -8.25602244237512 42.57180263181146 -7.712395612521067 40.329466715700356 -7.136396341763787 38.081460271689416 -6.560397071006506 35.833453827678476 -6.094881374349399 33.03864937810465 -5.629365677692292 30.243844928530834 -5.255772214849795 27.26975149960623 -4.882178752007299 24.295658070681622 -4.609703069490221 21.47011972680844 -4.337227386973143 18.644581382935257 -4.237035963599899 15.969703507564851 -4.1368445402266545 13.294825632194447 -3.60713667093944 9.79160338829132 -3.0774288016522258 6.288381144388192 -2.8817406262383995 4.255808109348512 -2.6860524508245733 2.2232350743088305 -2.6860524508245733 1.1099538243088305 -2.6860524508245733 -0.0033274256911695055 -2.4285793597873813 -0.7924206935507916 -2.171106268750189 -1.5815139614104137 -1.4989887769756929 -2.0685649394818917 -0.8268712852011963 -2.5556159175533693 0.003164569886074775 -2.554587686467278 0.8332004249733459 -2.5535594553811864 1.504109158611136 -2.0648447644641243 2.175017892248926 -1.576130073547062 2.4305351715367496 0.32687992607205374 Z"></path></g><g transform="translate(65 15) rotate(0 17 9.5)" stroke="none" fill="#000000"><path d="M -0.0248908287239607 -2.693026485598188 Q -0.0248908287239607 -2.693026485598188 0.6532566620245366 -3.7445751458187946 1.3314041527730338 -4.796123806039401 0.6532566620245366 -3.7445751458187946 -0.0248908287239607 -2.693026485598188 0.6532566620245366 -3.7445751458187946 1.3314041527730338 -4.796123806039401 2.490444059190465 -5.3046932489924785 3.649483965607896 -5.813262691945556 5.496639599851502 -6.268551696927787 7.343795234095108 -6.723840701910017 9.670971182585578 -6.639926575782371 11.998147131076047 -6.556012449654725 13.813474857930888 -6.101800270458437 15.628802584785731 -5.647588091262149 17.485076696293255 -5.009135514745983 19.341350807800776 -4.370682938229818 21.109485604507917 -3.5879765643401664 22.877620401215058 -2.805270190450515 24.549956315676134 -2.351944769454074 26.222292230137207 -1.8986193484576326 28.373735171885937 -0.5398824140561418 30.525178113634666 0.818854520345349 32.46501554498077 2.1277476958405557 34.40485297632688 3.4366408713357623 34.92981824287783 5.006990298796245 35.45478350942877 6.577339726256727 35.240880143144366 8.76002187495655 35.02697677685997 10.942704023656372 33.65647787822794 13.714060452740675 32.28597897959591 16.485416881824978 30.95176390677554 17.67367698981173 29.617548833955166 18.861937097798485 27.405252073172115 20.132176246809948 25.192955312389063 21.402415395821414 21.28720771996072 22.935891947169946 17.38146012753237 24.469368498518477 14.919481866805395 24.715998902731585 12.457503606078417 24.962629306944688 10.128416832519944 25.01944618316898 7.7993300589614725 25.07626305939327 6.097796299568586 25.153854104340006 4.3962625401757 25.231445149286742 2.272765228880507 25.328822050331304 0.14926791758531469 25.42619895137587 -0.8367178969523213 24.934943625804316 -1.8227037114899574 24.443688300232758 -2.0048177252801747 23.357256384578086 -2.186931739070392 22.270824468923415 -1.4150337876161108 21.48490247921162 -0.6431358361618298 20.698980489499824 0.4463986419075817 20.861505695144597 1.5359331199769932 21.02403090078937 2.0448597646694675 22.001012728508762 2.553786409361942 22.97799455622815 2.062531083790386 23.963980370765785 1.57127575821883 24.94996618530342 0.484843842564159 25.132080199093636 -0.6015880730905119 25.314194212883855 -1.3875100628023065 24.542296261429577 -2.173432052514101 23.7703983099753 -2.0109068468693305 22.680863831905885 -1.8483816412245597 21.59132935383647 -0.8713998135051715 21.082402709144 0.10558201421421674 20.573476064451523 2.23075796380721 20.662565869094607 4.355933913400204 20.751655673737694 6.032694834371172 20.803897953221092 7.709455755342142 20.85614023270449 9.893547703239088 20.811562047075427 12.077639651136034 20.76698386144636 14.168376276230727 20.608034018246034 16.259112901325423 20.44908417504571 18.566243252334175 19.66585792433382 20.873373603342923 18.88263167362193 22.36703986384203 17.84135521496095 23.860706124341142 16.80007875629997 25.710077510170706 15.444366560331293 27.55944889600027 14.088654364362615 28.7369389872275 12.517662437651511 29.91442907845473 10.946670510940407 30.634111350282467 9.508666523066136 31.3537936221102 8.070662535191865 30.707864632092893 6.916307135595999 30.061935642075582 5.7619517360001336 27.828215931768383 4.399004804860805 25.59449622146119 3.0360578737214774 23.246280788822368 2.450991709812742 20.898065356183547 1.8659255459040063 19.329728788988596 1.2396149529738942 17.761392221793646 0.6133043600437822 16.021780877692798 0.11568906928089512 14.282169533591954 -0.38192622148199196 11.969891631666407 -0.7075608133961249 9.657613729740861 -1.0331954053102579 7.371428200089957 -0.6890743333536984 5.085242670439053 -0.3449532613971388 3.7176953726864768 0.596181036878749 2.3501480749339008 1.537315335154637 1.7688337633814157 1.8262431227655247 1.1875194518289307 2.1151709103764125 0.4524883011560289 2.2621932717369733 -0.2825428495168729 2.409215633097534 -0.9636131175711755 2.096118751650264 -1.6446833856254781 1.7830218702029936 -2.0116470773914394 1.1293981128891533 -2.378610769157401 0.47577435557531267 -2.2913002270175635 -0.268714218165623 -2.2039896848777265 -1.0132027919065587 -1.1144402568008436 -1.8531146387523734 Z"></path></g><g transform="translate(123 10) rotate(0 12.5 14)" stroke="none" fill="#000000"><path d="M 2.999246884869895 -0.8312231109284638 Q 2.999246884869895 -0.8312231109284638 3.535219119991267 -0.12040038294755095 4.071191355112639 0.5904223450333619 3.535219119991267 -0.12040038294755095 2.999246884869895 -0.8312231109284638 3.535219119991267 -0.12040038294755095 4.071191355112639 0.5904223450333619 4.3552932024315405 1.8166572305453146 4.639395049750442 3.042892116057267 4.769697733185414 5.024344435587266 4.900000416620384 7.005796755117265 5.26448946927554 9.522512755030998 5.628978521930696 12.03922875494473 5.773096350633359 14.629654737561616 5.917214179336021 17.2200807201785 6.285645351809512 19.597318058463404 6.654076524283002 21.974555396748308 6.8506440712329795 23.18574796080685 7.047211618182958 24.396940524865396 7.9227345215198595 22.68685332452307 8.79825742485676 20.97676612418074 10.22978459306368 19.30242181710512 11.6613117612706 17.6280775100295 12.711055498796929 16.265083387292574 13.760799236323258 14.90208926455565 14.805804961487528 13.588279490503353 15.8508106866518 12.274469716451058 16.770845396920816 10.71596570289478 17.690880107189834 9.1574616893385 18.723484769994396 7.356047001562941 19.75608943279896 5.554632313787382 21.324931408397312 2.0018026834154217 22.89377338399567 -1.551026946956538 23.633864227179828 -1.906488074275221 24.373955070363987 -2.261949201593904 25.181635948282434 -2.1145088114540456 25.98931682620088 -1.9670684213141876 26.556081095552123 -1.3730437314346695 27.12284536490337 -0.7790190415551514 26.60526668960736 -0.37603703742540484 26.087688014311354 0.026944966704341766 23.972679091062155 1.2085096927529722 21.857670167812955 2.3900744188016025 21.143879731210312 1.406693817883685 20.430089294607672 0.4233132169657673 20.806105420826476 -0.7321719912781455 21.18212154704528 -1.8876571995220583 22.33794545087904 -2.2626309278998793 23.4937693547128 -2.6376046562777002 24.47650571833519 -1.922927503109001 25.45924208195758 -1.2082503499403017 25.45869406098137 0.006876760003380111 25.458146040005158 1.222003869947062 24.474765439087243 1.9357943065497043 23.491384838169324 2.6495847431523467 22.33589962992541 2.273568616933542 21.180414421681498 1.8975524907147374 20.805440693303677 0.7417285868809794 20.430466964925856 -0.41409531695277857 21.145144118094557 -1.3968316805751702 21.859821271263254 -2.3795680441975615 23.074948381206934 -2.3790200232213516 24.290075491150613 -2.378472002245142 23.59192443757314 -1.9647494746008403 22.893773383995672 -1.5510269469565385 23.633864227179828 -1.906488074275221 24.373955070363987 -2.261949201593904 25.181635948282434 -2.1145088114540456 25.98931682620088 -1.9670684213141876 26.556081095552123 -1.3730437314346693 27.12284536490337 -0.779019041555151 25.594150985574014 3.6035309644643854 24.06545660624466 7.986080970483922 23.017712495660806 9.817048039842415 21.969968385076953 11.648015109200909 20.174312362042176 14.310057661387406 18.3786563390074 16.972100213573903 17.005824041405525 18.9472689050333 15.632991743803654 20.9224375964927 14.505974169621954 22.323865949200375 13.378956595440254 23.72529430190805 12.421824192960791 25.436219775601575 11.464691790481327 27.1471452492951 9.478541176765662 28.606525448436475 7.492390563049997 30.06590564757785 5.469369255783151 29.62073417163528 3.4463479485163035 29.17556269569271 2.5089967192788345 26.916583476569954 1.5716454900413654 24.657604257447197 1.3870186806838447 22.411999745782726 1.2023918713263242 20.166395234118255 0.8560559578993816 17.449492430666957 0.5097200444724389 14.732589627215663 0.3908933984483067 12.249350929905864 0.27206675242417444 9.766112232596065 0.013608696358844652 7.194965322841409 -0.24484935970648514 4.623818413086754 -0.6259543722881902 3.149395762007609 -1.0070593848698952 1.6749731109284638 -1.505106259869895 1.4640356109284638 -2.003153134869895 1.2530981109284638 -2.1801453262972 0.5447259537643871 -2.357137517724505 -0.1636462033996895 -2.083956501345208 -0.8407647167793646 -1.8107754849659115 -1.5178832301590397 -1.1917671239556626 -1.905111842055078 -0.5727587629454137 -2.2923404539511165 0.15563678811023673 -2.2417709960356733 0.8840323391658872 -2.19120153812023 1.9416396120178911 -1.511212324524347 Z"></path></g><g transform="translate(189 36) rotate(0 1 7)" stroke="none" fill="#000000"><path d="M -0.18714700244797694 -3.8016101035793817 Q -0.18714700244797694 -3.8016101035793817 0.2818280076205464 -4.976125213639737 0.7508030176890698 -6.150640323700092 0.2818280076205464 -4.976125213639737 -0.18714700244797694 -3.8016101035793817 0.2818280076205464 -4.976125213639737 0.7508030176890698 -6.150640323700092 0.6107010981818934 -7.696216238587223 0.47059917867471723 -9.241792153474353 -0.9737897311661989 -10.623238893958355 -2.418178641007115 -12.004685634442357 -3.8551554121064298 -12.268562055244628 -5.292132183205744 -12.532438476046899 -6.796782890191789 -11.19172359594227 -8.301433597177834 -9.85100871583764 -9.93657418116476 -7.775779890075443 -11.571714765151686 -5.700551064313246 -12.301279151949572 -3.749426397874801 -13.030843538747458 -1.7983017314363554 -12.501401170040157 -0.4959998289604187 -11.971958801332859 0.806302073515518 -10.323348680641956 1.011907355728049 -8.674738559951052 1.2175126379405798 -6.917330396264216 0.2993874471561239 -5.15992223257738 -0.618737743628332 -3.6369895178239906 -1.9526500875382509 -2.1140568030706004 -3.2865624314481696 0.5812537775427102 -7.2852475659298 3.276564358156021 -11.28393270041143 4.072920330018438 -10.913298503942508 4.869276301880856 -10.542664307473586 5.295688502009826 -9.774728647997957 5.722100702138795 -9.006792988522326 5.615694163302673 -8.134881186786615 5.509287624466551 -7.262969385050903 5.316308952338325 -6.602025664124337 5.123330280210098 -5.941081943197771 4.299302275681801 -3.4742055150919446 3.475274271153504 -1.0073290869861178 2.1916637709925633 2.60508190399495 0.9080532708316227 6.217492894976018 -0.567821213306662 13.471174655961338 -2.0436956974449467 20.724856416946658 -1.268384677212394 23.357547413945454 -0.49307365697984107 25.99023841094425 0.6840388115876771 26.981709655909476 1.8611512801551953 27.9731809008747 3.4349501945853516 28.106598656838997 5.008749109015508 28.2400164128033 6.778797290060941 28.008456085721143 8.548845471106373 27.776895758638986 10.270642768913358 26.964312684761996 11.992440066720345 26.151729610885006 14.5431905023997 25.052287440426706 17.093940938079054 23.952845269968407 18.094439904725185 24.075212461643204 19.094938871371316 24.197579653318 19.58402027128092 25.078925950820185 20.07310167119053 25.960272248322372 19.647552372619245 26.873989768316292 19.222003074047965 27.787707288310216 18.232658470491145 27.98050035683539 17.24331386693433 28.173293425360562 16.505818830693926 27.48621775021326 15.768323794453526 26.79914207506596 15.890690986128323 25.798643108419828 16.01305817780312 24.798144141773697 16.894404475305308 24.30906274186409 17.77575077280749 23.81998134195448 18.68946829280141 24.245530640525764 19.60318581279533 24.671079939097044 19.795978881320508 25.660424542653864 19.98877194984568 26.649769146210684 19.30169627469838 27.387264182451084 18.61462059955108 28.124759218691487 15.983690244798693 29.004231509060464 13.352759890046304 29.88370379942944 11.092357123003259 30.624270841024128 8.831954355960214 31.364837882618815 6.673202277605529 31.345878017423363 4.5144501992508435 31.32691815222791 2.3730480760805235 30.810737755739034 0.23164595291020385 30.294557359250152 -1.452045728924179 28.68763599440266 -3.135737410758562 27.080714629555175 -4.053642992133614 23.819835187303106 -4.971548573508666 20.558955745051033 -4.220289464077368 12.488355749032886 -3.469030354646069 4.417755753014737 -2.594106480528679 0.7330397159819366 -1.7191826064112887 -2.951676321050864 -0.967808483774001 -4.709805007857421 -0.21643436113671316 -6.4679336946639765 1.140362735156001 -8.38425225300946 2.497159831448715 -10.300570811354945 2.886862094802368 -10.792251755883187 3.276564358156021 -11.28393270041143 4.072920330018438 -10.913298503942508 4.869276301880856 -10.542664307473586 5.295688502009826 -9.774728647997957 5.722100702138795 -9.006792988522326 5.615694163302673 -8.134881186786615 5.509287624466551 -7.262969385050903 3.9343466055128657 -3.9300504856083553 2.3594055865591805 -0.5971315861658074 1.189054594241004 0.7078009383251478 0.018703601922827717 2.012733462816103 -1.3107260090444268 3.0971913144822283 -2.640155620011681 4.181649166148354 -4.633331350742813 5.23535964426406 -6.626507081473943 6.289070122379766 -8.338719413794259 6.84709250604711 -10.050931746114573 7.405114889714454 -12.11339472089156 6.690308959694802 -14.175857695668544 5.975503029675148 -15.615433977960214 4.428579044623733 -17.055010260251883 2.881655059572317 -17.585203752458423 1.238007155177998 -18.115397244664962 -0.40564074921632076 -17.925393632820573 -2.0338010394237354 -17.73539002097618 -3.66196132963115 -16.92455736550539 -5.937801271286046 -16.1137247100346 -8.213641212940942 -14.380996984755766 -10.669073415544757 -12.648269259476933 -13.124505618148572 -11.305394461111252 -14.674857455600268 -9.96251966274557 -16.225209293051964 -8.082814313681812 -17.180716814800096 -6.2031089646180515 -18.136224336548228 -4.3929069623220744 -18.083131575057095 -2.5827049600260965 -18.030038813565966 -0.5801257667501676 -16.97601559050213 1.4224534265257613 -15.921992367438289 2.938784269160922 -14.78917585627428 4.455115111796083 -13.65635934511027 5.411940347406831 -12.083794517705812 6.368765583017579 -10.511229690301356 6.534967240186715 -8.726068510029979 6.701168897355851 -6.940907329758604 5.8369523030310955 -4.8685702793900605 4.97273570870634 -2.7962332290215177 4.331182540415468 -1.5100997242416858 3.689629372124596 -0.2239662194618539 2.814008779705441 0.7824278612984549 1.9383881872862863 1.7888219420587637 1.227567007988609 2.1876826413999604 0.5167458286909319 2.586543340741157 -0.29276502211434796 2.4914182186881426 -1.1022758729196278 2.3962930966351284 -1.7012707644867389 1.8435167166281727 -2.30026565605385 1.2907403366212171 -2.459948898891713 0.4914544876448498 -2.619632141729576 -0.30783136133151756 -1.4033895720887763 -2.0547207324554497 Z"></path></g><g transform="translate(54 92) rotate(0 15 14)" stroke="none" fill="#000000"><path d="M 1.2522958614457362 -2.671329903655803 Q 1.2522958614457362 -2.671329903655803 2.3486409604637073 -2.5727056154232937 3.444986059481679 -2.4740813271907847 2.3486409604637073 -2.5727056154232937 1.2522958614457362 -2.671329903655803 2.3486409604637073 -2.5727056154232937 3.444986059481679 -2.4740813271907847 4.952290381850907 -2.0036246309178467 6.459594704220135 -1.5331679346449085 8.320517342455297 -1.0560140233310475 10.181439980690458 -0.5788601120171866 12.277179996464705 -0.09894933368145564 14.372920012238952 0.3809614446542753 17.40936553472088 0.8052463959169911 20.44581105720281 1.229531347179707 22.631607133757406 1.2972483446245424 24.817403210311998 1.3649653420693777 26.701154216385333 1.6562448724756393 28.584905222458673 1.9475244028819008 30.12790499885324 3.5294805638657047 31.670904775247806 5.111436724849509 31.526051798756743 7.804739112591596 31.38119882226568 10.498041500333683 30.364039040396435 12.657968962541236 29.34687925852719 14.81789642474879 28.069262260349753 16.09163257074482 26.791645262172313 17.365368716740853 25.51295102248855 18.22129665581789 24.234256782804785 19.07722459489493 23.260487189457287 20.659765172738677 22.286717596109792 22.242305750582425 21.22354497481826 23.52186792801556 20.160372353526725 24.80143010544869 19.268805030561584 27.039347918457615 18.377237707596443 29.277265731466542 17.313971496690808 29.93552048603027 16.250705285785173 30.593775240594002 15.093193804683775 30.12048724341065 13.935682323582377 29.6471992462273 13.638212178586773 28.432561082000735 13.340742033591168 27.21792291777417 14.148556386241125 26.26331811534957 14.956370738891083 25.30871331292497 16.203483610042362 25.40114622788603 17.45059648119364 25.493579142847093 18.10885123575737 26.556845353752728 18.7671059903211 27.620111564658362 18.293817993137747 28.77762304575976 17.820529995954395 29.93513452686116 16.60589183172783 30.232604671856762 15.391253667501271 30.53007481685237 14.436648865076668 29.722260464202414 13.482044062652065 28.914446111552454 13.574476977613125 27.667333240401177 13.666909892574186 26.4202203692499 14.213595428039994 25.050312952511803 14.760280963505803 23.68040553577371 16.15862868882642 21.677210484274102 17.556976414147034 19.674015432774496 18.66090377710139 18.086222432626062 19.764831140055747 16.49842943247763 21.809211868485306 14.623803259415421 23.85359259691487 12.749177086353214 25.243052223471473 10.33057676201207 26.63251185002808 7.911976437670925 25.643704565971582 7.260736563959831 24.65489728191508 6.609496690248737 22.132947050172753 6.4856789300794375 19.61099681843043 6.361861169910137 17.638810341173006 6.073177664200392 15.666623863915582 5.784494158490647 13.003034478202283 5.339563127705153 10.339445092488983 4.89463209691966 8.231551949505857 4.599515720048097 6.123658806522731 4.3043993431765335 4.68306628807142 3.690955986605597 3.24247376962011 3.07751263003466 2.225557704087187 2.8744212668452316 1.2086416385542638 2.671329903655803 0.5934072635542638 2.671329903655803 -0.021827111445736236 2.671329903655803 -0.8048269684601035 2.4098257695436955 -1.5878268254744707 2.148321635431588 -2.0675787429476378 1.476524578335427 -2.5473306604208044 0.8047275212392663 -2.540585712045956 -0.02075881657236811 -2.5338407636711078 -0.8462451543840025 -2.043175290475073 -1.5101130491157428 -1.552509817279038 -2.173980943847483 -0.15010697791665084 -2.4226554237516433 Z"></path></g><g transform="translate(105 95) rotate(0 2.5 20.5)" stroke="none" fill="#000000"><path d="M 3.9851206316942522 -1.724696811594836 Q 3.9851206316942522 -1.724696811594836 5.180683313347765 -0.14713272073987005 6.376245995001277 1.430431370115096 5.180683313347765 -0.14713272073987005 3.9851206316942522 -1.724696811594836 5.180683313347765 -0.14713272073987005 6.376245995001277 1.430431370115096 6.898297219058478 3.9162850576103745 7.42034844311568 6.402138745105653 7.488673502457136 8.613292986704991 7.556998561798591 10.82444722830433 7.402494096427089 13.613191925452902 7.247989631055587 16.401936622601475 6.951236255739114 20.4630925502711 6.654482880422641 24.52424847794072 6.733212463850864 28.147144541292512 6.8119420472790875 31.770040604644308 6.829899577040209 33.411278789961315 6.847857106801331 35.05251697527832 5.972987521109109 39.0795360901273 5.098117935416886 43.106555204976274 4.464777711216687 43.49618387432285 3.831437487016488 43.885812543669424 3.09003649670503 43.828760715198015 2.348635506393572 43.7717088867266 1.7823637289770018 43.289768419792956 1.2160919515604314 42.80782795285931 0.49315533607570616 41.48951972137368 -0.22978127940901905 40.17121148988806 -0.20807114297397122 39.03765303273815 -0.1863610065389234 37.904094575588246 0.7434679474345752 37.25536950119027 1.6732969014080739 36.6066444267923 2.744666257573345 36.97758082089528 3.8160356137386158 37.34851721499825 4.1456768743891725 38.433304173380776 4.47531813503973 39.518091131763306 3.7914653219894534 40.42239828969325 3.107612508939177 41.32670544762319 1.9740540517892706 41.304995311188144 0.8404955946393642 41.2832851747531 0.19177052024139218 40.3534562207796 -0.4569545541565798 39.4236272668061 -0.08601816005360496 38.35225791064083 0.2849182340493699 37.28088855447556 1.3697051924318984 36.951247293825006 2.454492150814427 36.621606033174444 3.3587993087443673 37.30545884622472 4.263106466674308 37.98931165927499 4.600011481967522 40.06239450095469 4.936916497260736 42.13547734263439 5.017517216338811 42.62101627380533 5.0981179354168855 43.106555204976274 4.464777711216687 43.49618387432285 3.8314374870164882 43.885812543669424 3.0900364967050304 43.828760715198015 2.3486355063935727 43.7717088867266 1.7823637289770018 43.289768419792956 1.216091951560431 42.80782795285931 2.0969220595982905 37.70400401756798 2.97775216763615 32.600180082276644 3.158404429487797 28.564225045656272 3.3390566913394437 24.528270009035904 3.0318216008206393 20.485858992106373 2.724586510301835 16.443447975176845 2.5289462569664654 13.750269568992898 2.333306003631096 11.057091162808952 2.237087911117083 9.340552991078212 2.1408698186030692 7.624014819347472 1.9483566292215697 5.503027423544949 1.7558434398400702 3.382040027742425 0.9715446041506336 2.2851955211344674 0.187245768461197 1.1883510145265097 -0.8558458315776653 1.3224374637935914 -1.8989374316165275 1.4565239130606729 -2.1456666803787003 0.7593545470549571 -2.392395929140873 0.06218518104924131 -2.182218212710582 -0.6468604977385966 -1.9720404962802904 -1.3559061765264344 -1.3852365586560687 -1.805996818375681 -0.7984326210318468 -2.2560874602249275 -0.05914162165387482 -2.275303737967426 0.6801493777240971 -2.2945200157099244 2.3326350047091746 -2.00960841365238 Z"></path></g><g transform="translate(108 106) rotate(0 14.5 -2.5)" stroke="none" fill="#000000"><path d="M -0.3460639286979754 -6.214304333543199 Q -0.3460639286979754 -6.214304333543199 0.692123780907413 -8.889505691267484 1.7303114905128014 -11.56470704899177 0.692123780907413 -8.889505691267484 -0.3460639286979754 -6.214304333543199 0.692123780907413 -8.889505691267484 1.7303114905128014 -11.56470704899177 3.120518127684559 -13.008440251206437 4.510724764856317 -14.452173453421107 6.83326084338803 -15.49042602790297 9.155796921919743 -16.528678602384833 11.844850430948066 -16.366118620386764 14.533903939976389 -16.203558638388696 17.47208589260293 -15.277271460796467 20.410267845229473 -14.350984283204236 22.16251986786569 -13.15079639339962 23.914771890501903 -11.950608503595003 25.437659798211854 -10.312806002436176 26.960547705921808 -8.675003501277349 28.424334490145036 -6.873387903282309 29.888121274368263 -5.071772305287269 30.44358299493995 -2.7250886407682833 30.999044715511634 -0.37840497624929736 30.68775879150638 2.2956818535067107 30.376472867501125 4.969768683262719 29.48969664913221 6.449539173248038 28.602920430763294 7.929309663233356 26.812958376444193 8.872586457879343 25.02299632212509 9.815863252525332 22.277857133537534 10.667434647470628 19.53271794494998 11.519006042415926 17.83198872402385 11.560513574820089 16.131259503097727 11.60202110722425 14.29894079705567 11.588218241850521 12.466622091013612 11.574415376476793 9.831674215962334 10.652730055103385 7.196726340911058 9.731044733729977 6.141402188529111 9.196054105441776 5.086078036147164 8.661063477153576 4.898590573105485 7.4928287018797555 4.711103110063807 6.324593926605935 5.546022530914498 5.48624221065181 6.380941951765188 4.647890494697683 7.549936059664082 4.830583720227656 8.718930167562977 5.01327694575763 9.25824573999182 6.0663974290322775 9.797561312420662 7.119517912306925 9.262570684132463 8.174842064688873 8.727580055844262 9.23016621707082 7.559345280570442 9.417653680112497 6.391110505296621 9.605141143154176 5.552758789342496 8.770221722303488 4.7144070733883705 7.935302301452799 4.897100298918343 6.766308193553903 5.079793524448316 5.597314085655007 6.132914007722961 5.057998513226164 7.186034490997606 4.518682940797321 9.811487829617375 5.465053319870025 12.436941168237144 6.41142369894273 14.20996735107122 6.376379446698284 15.982993533905297 6.341335194453837 18.194426275382412 6.268100998642289 20.405859016859527 6.194866802830741 22.401118236206372 5.616615270759771 24.396377455553214 5.038363738688801 25.191797961984573 2.9771457784541138 25.987218468415932 0.9159278182194259 25.449630389617475 -1.0780353583565385 24.912042310819018 -3.071998534932503 23.252026783985066 -5.217634141783313 21.59201125715111 -7.363269748634123 20.03109957213361 -8.537035522078805 18.470187887116108 -9.710801295523487 16.297731340482702 -10.37323569128407 14.125274793849295 -11.035670087044654 11.760642793577212 -11.300280607676399 9.396010793305129 -11.564891128308146 7.884274418303873 -10.524270766435473 6.372538043302616 -9.4836504045628 5.563347755481576 -8.002160717878088 4.754157467660537 -6.520671031193374 4.375338550053741 -5.040831830848911 3.996519632446945 -3.560992630504448 3.083905706509703 -1.1171683894925362 2.17129178057246 1.3266558515193756 1.574057493205809 1.838098134064937 0.9768232058391575 2.3495404166104983 0.19303228665704458 2.4122604085542485 -0.5907586325250683 2.4749804004979987 -1.261724692468598 2.0650211966915446 -1.9326907524121277 1.6550619928850905 -2.2345457235162445 0.9290140751816528 -2.536400694620361 0.20296615747821511 -1.4412323116591683 -3.0056690880324917 Z"></path></g><g transform="translate(10 155) rotate(0 125 13.5)" stroke="none" fill="#000000"><path d="M 5.8132044508063725 -1.431655127332464 Q 5.8132044508063725 -1.431655127332464 7.893692359940391 -0.8896748170721266 9.97418026907441 -0.34769450681178915 7.893692359940391 -0.8896748170721266 5.8132044508063725 -1.431655127332464 7.893692359940391 -0.8896748170721266 9.97418026907441 -0.34769450681178915 13.092261579051861 0.5516260160705106 16.210342889029313 1.4509465389528104 20.226717036489557 2.7614607899892456 24.2430911839498 4.071975041025681 29.087927710061436 4.795812479287283 33.93276423617307 5.519649917548887 39.78871744594632 6.6491818615302005 45.644670655719565 7.778713805511514 52.19317402862995 9.28554271264935 58.74167740154033 10.792371619787186 66.75688416172213 11.71361489051776 74.77209092190394 12.634858161248335 84.39517442282886 13.807264043679563 94.01825792375377 14.979669926110793 100.7300759403308 15.740766060461848 107.44189395690785 16.5018621948129 116.23335336422463 17.34730701879687 125.0248127715414 18.192751842780837 134.32582536371928 18.777306727077438 143.62683795589714 19.361861611374042 153.92412917696507 19.977102722484368 164.221420398033 20.592343833594693 175.42245888780064 21.308821391119274 186.62349737756827 22.025298948643858 193.81268058725618 22.29724140369895 201.00186379694412 22.569183858754045 209.95511895955204 23.10866481899438 218.90837412215996 23.648145779234717 224.65092617613936 24.349422795333425 230.39347823011875 25.05069981143213 236.61874532172885 25.217612123479682 242.84401241333893 25.38452443552724 246.16711946478011 25.43811981335621 249.4902265162213 25.49171519118518 250.0876425027094 25.81857254579027 250.68505848919747 26.145429900395364 250.77177764092698 26.8208715188157 250.85849679265647 27.49631313723604 250.36302528312422 27.963485026815015 249.86755377359194 28.430656916393993 249.19837292939414 28.304408791933916 248.52919208519634 28.178160667473836 248.23799433205642 27.56257520652042 247.94679657891646 26.94698974556701 248.27365393352156 26.34957375907893 248.60051128812665 25.752157772590845 249.275952906547 25.66543862086135 249.95139452496733 25.578719469131855 250.41856641454632 26.074190978664113 250.88573830412528 26.569662488196375 250.7594901796652 27.238843332394175 250.63324205520513 27.908024176591976 250.01765659425172 28.199221929731905 249.4020711332983 28.49041968287183 246.07896408185712 28.43682430504286 242.75585703041594 28.383228927213892 236.38092828765832 28.201771283373148 230.00599954490073 28.0203136395324 224.34776826140933 27.328110832077897 218.68953697791795 26.635908024623397 209.78965879064273 26.101469690650905 200.8897806033675 25.567031356678413 193.6664304135229 25.293296634882193 186.44308022367827 25.019561913085973 175.2439851153157 24.303330763205302 164.04489000695315 23.58709961332463 153.7416468355003 22.971505894813937 143.43840366404743 22.355912176303246 134.08727868614216 21.767127742115782 124.73615370823688 21.178343307928316 115.9190628352211 20.330430857976012 107.10197196220531 19.482518408023708 100.37958885745209 18.720185446629674 93.65720575269887 17.95785248523564 84.04348476830273 16.786541984686522 74.42976378390661 15.615231484137407 66.24775260280424 14.661609222946595 58.06574142170186 13.707986961755783 51.57537302947552 12.215353741208071 45.085004637249185 10.72272052066036 39.28547078647556 9.604403953899487 33.48593693570193 8.486087387138614 28.458825219626064 7.718530782431467 23.4317135035502 6.950974177724319 19.460294682260443 6.045912256885755 15.488875860970687 5.1408503360471896 12.155785295948139 4.677866171429489 8.82269473092559 4.21488200681179 6.848495140059609 3.8076435670721267 4.8742955491936275 3.400405127332464 2.2024205491936275 2.908217627332464 -0.46945445080637244 2.416030127332464 -1.1346789787670069 2.0473505782296235 -1.7999035067276414 1.6786710291267832 -2.121377053138359 0.9893938414256098 -2.442850599549076 0.3001166537244364 -2.2977811961649492 -0.4464777145431633 -2.1527117927808224 -1.193072082810763 -1.5965110209669189 -1.711809958775821 -1.0403102491530154 -2.230547834740879 2.3864471008266785 -1.8311014810366717 Z"></path></g><g transform="translate(64 211) rotate(0 0.5 -3.5)" stroke="none" fill="#000000"><path d="M -0.17241674468741353 2.075152993740482 Q -0.17241674468741353 2.075152993740482 0.5058944664809524 0.9897858643964322 1.1842056776493184 -0.0955812649476176 0.5058944664809524 0.9897858643964322 -0.17241674468741353 2.075152993740482 0.5058944664809524 0.9897858643964322 1.1842056776493184 -0.0955812649476176 0.8682190488522301 -0.8814488689078749 0.5522324200551417 -1.6673164728681322 1.4741686494617956 -2.4810865866098224 2.3961048788684494 -3.294856700351513 2.620672637155043 -3.9942843894207587 2.8452403954416363 -4.693712078490004 1.4849407920107325 -3.334462603793115 0.12464118857982842 -1.9752131290962256 0.5530316968724799 -0.20659184765675676 0.9814222051651313 1.562029433782712 -0.23331047942409688 2.035110411423807 -1.4480431640133251 2.508191389064902 -2.544775672119678 1.8035220254070548 -3.6415081802260314 1.0988526617492074 -3.716061883586102 -0.20261683529269703 -3.790615586946173 -1.5040863323346014 -2.781526213517495 -2.3293861220162206 -1.7724368400888173 -3.1546859116978396 -0.5116274328358881 -2.8234145048458075 0.7491819744170412 -2.4921430979937758 1.2222629520581365 -1.2774104134045476 1.6953439296992316 -0.06267772881531952 0.9906745660413845 1.0340547792910337 0.2860052023835373 2.130787287397387 -1.0154642946583652 2.205340990757459 -2.3169337917002677 2.2798946941175307 -3.142233581381889 1.270805320688852 -3.96753337106351 0.2617159472601738 -3.6362619642114797 -0.9990934599927536 -3.30499055735945 -2.259902867245681 -3.814299650516263 -4.206036468337526 -4.323608743673076 -6.152170069429372 -2.8730244434759427 -7.0916277409993045 -1.4224401432788094 -8.031085412569237 0.35919289060885873 -9.098436765898711 2.140825924496527 -10.165788119228184 4.16158996118995 -10.032686765258397 6.182353997883373 -9.899585411288609 7.310655135748392 -8.222747223341123 8.43895627361341 -6.545909035393636 8.177102375321134 -4.663955870320879 7.915248477028857 -2.782002705248121 6.913359295543 -1.066746759236519 5.911470114057141 0.6485091867750833 4.553254066232094 1.55156721188583 3.195038018407047 2.4546252369965766 1.692656167529548 2.9071665237704867 0.19027431665204897 3.3597078105443963 -0.7356060908909761 3.1929127803975046 -1.6614864984340012 3.0261177502506134 -2.37206483804166 1.7483495075991153 -3.0826431776493184 0.47058126494761754 -2.251988216480952 -0.8022858643964322 -1.4213332553125864 -2.075152993740482 -1.0228957553125864 -2.075152993740482 -0.6244582553125864 -2.075152993740482 0.04504436491651581 -2.0605171923748036 0.714546985145618 -2.045881391009125 1.24758327449129 -1.6405170124361605 1.7806195638369622 -1.235152633863196 1.9735877770062813 -0.5938950928693378 2.1665559901756004 0.04736244812452017 1.9457488284862214 0.6795745664217963 1.7249416667968425 1.3117866847190724 0.7762624610547144 1.6934698392297771 Z"></path></g><g transform="translate(59 231) rotate(0 0 3.5)" stroke="none" fill="#000000"><path d="M 0.8032234711344248 3.3542941496541334 Q 0.8032234711344248 3.3542941496541334 0.352645373382543 3.497750391144381 -0.09793272436933886 3.6412066326346286 0.352645373382543 3.497750391144381 0.8032234711344248 3.3542941496541334 0.352645373382543 3.497750391144381 -0.09793272436933886 3.6412066326346286 0.8709061521984895 2.962666064802171 1.839745028766318 2.2841254969697142 1.8309872382627654 3.6256324691158834 1.8222294477592131 4.967139441262053 1.9374841416469293 3.5060862952090805 2.0527388355346456 2.045033149156108 1.1305263352146198 2.9925662099219705 0.20831383489459399 3.940099270687833 -1.1003194211649774 3.7509596446816422 -2.4089526772245486 3.5618200186754514 -3.025130834047114 2.3919399923284828 -3.6413089908696796 1.222059965981514 -3.0570366015402337 0.03592313911114975 -2.4727642122107882 -1.1502136877592144 -1.1697326678491542 -1.3747211294830282 0.13329887651247974 -1.599228571206842 1.0808319372783424 -0.6770160708868165 2.028364998044205 0.24519642943320896 1.8392253720380145 1.5538296854927802 1.6500857460318241 2.8624629415523515 0.48020571968485737 3.4786410983749176 -0.6896743066621094 4.094819255197484 -1.8758111335324754 3.5105468658680383 -3.0619479604028417 2.926274476538593 -3.2864554021266565 1.6232429321769613 -3.5109628438504714 0.32021138781532943 -3.346184361352491 0.7922564464231717 -3.1814058788545103 1.264301505031014 -1.2591325936931566 0.35722490449577016 0.6631406914681974 -0.5498516960394737 2.445503659754611 -0.39458497121013403 4.227866628041024 -0.23931824638079435 4.479104886724804 2.2824466675661057 4.730343145408584 4.804211581513005 3.521811498705808 6.525841476064372 2.3132798520030313 8.247471370615738 0.8347658902437964 8.906244685063779 -0.6437480715154383 9.565017999511818 -2.4359110443574266 9.221189696453546 -4.228074017199415 8.877361393395272 -5.256481551438335 7.729819839008471 -6.284889085677255 6.582278284621668 -6.112120022901826 4.739830436350783 -5.939350960126397 2.897382588079898 -5.352168045305708 1.9254368632003727 -4.76498513048502 0.9534911383208473 -3.9835587072483745 0.549971115341022 -3.2021322840117286 0.14645109236119686 -2.6024050807924026 -0.7287352181426356 -2.0026778775730767 -1.603921528646468 -1.3400584472078263 -2.039332912247575 -0.6774390168425761 -2.4747442958486823 0.11455975308695004 -2.437521575675154 0.9065585230164762 -2.4002988555016254 1.5254200214453075 -1.9046598455060224 2.1442815198741387 -1.4090208355104195 2.3536216887311507 -0.6442827913607143 2.5629618575881628 0.12045525278899083 1.6830926643612938 1.7373747012215621 Z"></path></g><g transform="translate(94 233) rotate(0 -4.5 0)" stroke="none" fill="#000000"><path d="M -1.1480427989956496 2.648257876892624 Q -1.1480427989956496 2.648257876892624 -1.9721246581285086 2.7632406332686905 -2.7962065172613677 2.878223389644757 -1.9721246581285086 2.7632406332686905 -1.1480427989956496 2.648257876892624 -1.9721246581285086 2.7632406332686905 -2.7962065172613677 2.878223389644757 -5.129476438468133 3.488287129857601 -7.462746359674899 4.098350870070444 -8.006421851489897 3.4193548607246815 -8.550097343304897 2.740358851378919 -8.590836214949507 1.8714751045837126 -8.631575086594117 1.0025913577885064 -8.153816473763417 0.2757039325472682 -7.676057860932717 -0.45118349269396996 -7.3306518118711 -0.6039429950031696 -6.985245762809483 -0.7567024973123694 -5.784218300021786 -1.1254147540357669 -4.58319083723409 -1.4941270107591644 -2.047164909074232 -2.696780251964917 0.4888610190856262 -3.8994334931706693 1.0451168927947259 -3.2078911431770996 1.6013727665038258 -2.51634879318353 1.644914826893472 -1.6299202806414712 1.688456887283118 -0.743491768099412 1.2026535472246667 -0.0007626562029180439 0.7168502071662151 0.7419664556935759 0.39359433726501447 0.9827392845097895 0.07033846736381388 1.2235121133260032 -1.3394392440266398 1.972654838702315 -2.7492169554170935 2.721797564078627 -5.714467566018841 3.2819400458523127 -8.679718176620588 3.8420825276259984 -9.531763502759045 3.559734569985315 -10.3838088288975 3.277386612344632 -10.907168012205164 2.5481426392973456 -11.430527195512827 1.8188986662500595 -11.425294816290554 0.9213050894092223 -11.420062437068282 0.023711512568385107 -10.979131431720512 -0.21767021699854056 -10.538200426372743 -0.4590519465654662 -9.15327123766319 -1.1773292005914182 -7.768342048953639 -1.8956064546173703 -6.65491128067684 -1.1891428794225982 -5.541480512400042 -0.4826793042278261 -5.458563365597716 0.8333539801493592 -5.37564621879539 2.1493872645265446 -6.391602034967035 2.990013601497645 -7.40755785113868 3.8306399384687446 -8.684802689393916 3.5028221812120703 -9.962047527649151 3.1750044239553956 -10.447583070463732 1.9490052006741616 -10.933118613278316 0.7230059773929277 -10.226655038083543 -0.39042479088387066 -9.520191462888771 -1.503855559160669 -8.204158178511587 -1.586772705962995 -6.8881248941344015 -1.669689852765321 -6.047498557163301 -0.6537340365936786 -5.206872220192201 0.36222177957796386 -5.534689977448876 1.6394666178332016 -5.86250773470555 2.9167114560884393 -7.08850695798678 3.4022469989030215 -8.314506181268012 3.887782541717604 -8.497112178944299 3.8649325346718015 -8.679718176620588 3.8420825276259984 -9.531763502759045 3.559734569985315 -10.3838088288975 3.277386612344632 -10.907168012205162 2.5481426392973456 -11.430527195512825 1.8188986662500595 -11.425294816290553 0.9213050894092221 -11.420062437068282 0.023711512568384774 -8.00652339275331 -1.1590415684076918 -4.59298434843834 -2.3417946493837682 -2.5900735971063007 -2.9070069763882413 -0.587162845774261 -3.4722193033927145 -0.049150913344317315 -3.6858263982816917 0.4888610190856264 -3.8994334931706685 1.0451168927947259 -3.2078911431770996 1.6013727665038253 -2.51634879318353 1.6449148268934715 -1.6299202806414712 1.6884568872831176 -0.7434917680994123 1.202653547224666 -0.0007626562029182105 0.7168502071662144 0.7419664556935759 -0.8903406184710108 1.7896349575435666 -2.497531444108236 2.8373034593935573 -4.502237599254297 3.387190685710062 -6.506943754400357 3.9370779120265667 -6.984845057037628 4.017714391048505 -7.462746359674899 4.098350870070444 -8.006421851489897 3.4193548607246815 -8.550097343304897 2.740358851378919 -8.590836214949507 1.8714751045837128 -8.631575086594117 1.0025913577885066 -8.153816473763417 0.2757039325472683 -7.676057860932717 -0.45118349269396996 -6.718163038698488 -0.8606084921764783 -5.760268216464258 -1.2700334916589866 -4.656365859639845 -1.8034810871559366 -3.552463502815431 -2.3369286826528866 -2.4326791019098906 -2.4925932797727555 -1.3128947010043504 -2.648257876892624 -0.6976603260043504 -2.648257876892624 -0.08242595100435035 -2.648257876892624 0.7037484890802368 -2.4195961315963066 1.489922929164824 -2.1909343862999893 1.9915474100878305 -1.54384140678082 2.4931718910108374 -0.8967484272616507 2.5186429106486985 -0.07839173781451231 2.5441139302865596 0.7399649516326261 2.083702424865728 1.4170009105597685 1.6232909194448968 2.094036869486911 0.23762406022462357 2.3711473731897676 Z"></path></g><g transform="translate(155 211) rotate(0 4.5 16.5)" stroke="none" fill="#000000"><path d="M -2.5820637097895487 -2.8822412096559273 Q -2.5820637097895487 -2.8822412096559273 -4.629639960899141 -2.822428550807202 -6.677216212008732 -2.7626158919584762 -4.629639960899141 -2.822428550807202 -2.5820637097895487 -2.8822412096559273 -4.629639960899141 -2.822428550807202 -6.677216212008732 -2.7626158919584762 -8.959895542221943 -1.287284424866442 -11.242574872435153 0.18804704222559243 -12.859347616935583 1.582778784083797 -14.476120361436013 2.9775105259420016 -16.683604229386802 5.2082339359786936 -18.891088097337587 7.438957346015385 -20.15485847232201 10.0399426759482 -21.418628847306437 12.640928005881015 -20.990307594188216 13.883293607298068 -20.561986341069993 15.12565920871512 -18.33787710888261 14.772082926629821 -16.11376787669522 14.418506644544523 -13.484651480818611 12.819792703694636 -10.855535084942002 11.22107876284475 -9.16372211354559 9.94794768804437 -7.471909142149181 8.67481661324399 -5.726951414692584 6.874548066414724 -3.9819936872359873 5.074279519585458 -2.351573927159798 2.900809849956782 -0.721154167083609 0.7273401803281065 0.11123757002005197 0.7923676516936917 0.943629307123713 0.8573951230592769 1.5788261797552963 1.399271039694911 2.21402305238688 1.941146956330545 2.409401444748758 2.7528931357664197 2.6047798371106365 3.5646393152022946 2.4482459199622424 3.921245917695874 2.2917120028138487 4.2778525201894535 1.6376923610889942 5.910088577963453 0.9836727193641395 7.542324635737452 0.29382152914954296 9.747202398023793 -0.39602966106505355 11.952080160310135 -0.9422948839962796 14.021933641384061 -1.4885601069275056 16.091787122457987 -1.9256928877337964 18.094289442922367 -2.3628256685400872 20.096791763386747 -2.567906697954512 22.074876606663793 -2.772987727368937 24.05296144994084 -3.151371523151611 26.319435819056608 -3.5297553189342854 28.58591018817237 -3.36747070766787 30.318298034514406 -3.205186096401455 32.05068588085644 -2.31740227310819 33.92267357773291 -1.4296184498149245 35.794661274609375 0.07347829005908357 36.32322836043238 1.5765750299330916 36.85179544625538 3.945439405823764 36.0644235136623 6.314303781714436 35.277051581069216 8.708344406522661 34.18321196617461 11.102385031330886 33.089372351280005 15.236058757305026 30.530046711879578 19.369732483279165 27.970721072479154 22.987954548676864 25.023983907882656 26.606176614074563 22.077246743286157 29.11795582554387 20.121835041761035 31.629735037013177 18.166423340235912 32.294892997248326 18.020455949676304 32.960050957483475 17.8744885591167 33.46911109654192 18.326815173404157 33.97817123560038 18.779141787691618 33.91144935990226 19.456851004446335 33.844727484204135 20.13456022120105 33.257231076064386 20.4789285728158 32.66973466792464 20.82329692443055 32.04581309466407 20.550416984546672 31.42189152140351 20.277537044662797 31.275924130843904 19.612379084427644 31.129956740284296 18.947221124192495 31.582283354571757 18.438160985134044 32.034609968859215 17.929100846075592 32.71231918561393 17.995822721773713 33.39002840236864 18.062544597471838 33.7343967539834 18.650041005611584 34.07876510559815 19.237537413751333 33.80588516571427 19.861458987011897 33.533005225830394 20.48538056027246 31.021226014361087 22.440792261797583 28.50944680289178 24.39620396332271 24.801103993738998 27.409642858639504 21.092761184586216 30.4230817539563 16.92017541235842 33.704460354209054 12.747589640130627 36.98583895446181 10.416592272131123 38.25481629817994 8.085594904131616 39.52379364189807 5.366277756571386 40.66524468266141 2.6469606090111557 41.80669572342475 0.7281713939769169 41.92136513745264 -1.190617821057322 42.03603455148053 -2.862623625526219 41.123477769949716 -4.534629429995116 40.2109209884189 -5.782471294442221 37.99763459848559 -7.030313158889326 35.78434820855228 -7.559454454830849 33.732131376580746 -8.088595750772372 31.67991454460921 -8.059385765057403 29.82106872625878 -8.030175779342436 27.962222907908345 -7.748456222540189 25.80089692114518 -7.466736665737942 23.63957093438202 -7.281404284812686 21.40645435414337 -7.096071903887429 19.173337773904723 -6.721551043334994 17.08103440030631 -6.34703018278256 14.988731026707901 -5.896680840278885 12.679361731530662 -5.446331497775208 10.36999243635342 -4.962841554252323 8.662351076600606 -4.479351610729438 6.954709716847791 -3.700407666304569 5.571679329487363 -2.9214637218796997 4.188648942126934 -2.0417447861033247 2.806199691950259 -1.1620258503269498 1.423750441773584 -0.9415900087052792 1.0755453110508448 -0.7211541670836086 0.7273401803281057 0.11123757002005219 0.7923676516936908 0.943629307123713 0.857395123059276 1.5788261797552963 1.3992710396949102 2.21402305238688 1.9411469563305446 2.409401444748758 2.7528931357664197 2.6047798371106365 3.564639315202295 1.1874627669420337 6.101273773267117 -0.22985430322656908 8.637908231331938 -1.3717070822606143 9.849671283642923 -2.5135598612946595 11.061434335953907 -3.737329929223348 12.150080085317331 -4.961099997152036 13.238725834680753 -6.400028499568173 14.306383077276084 -7.83895700198431 15.374040319871414 -10.31323948845451 17.10344283885221 -12.787521974924712 18.832845357833005 -14.811936911663254 19.63541561662433 -16.836351848401797 20.437985875415652 -19.21374666176259 20.237123467989086 -21.59114147512338 20.036261060562516 -23.544139440356297 18.181267912708044 -25.497137405589218 16.326274764853576 -25.5368324074406 13.707521050144772 -25.576527409291984 11.088767335435968 -24.639789612416156 8.953123082153635 -23.703051815540327 6.817478828871302 -22.599007815645976 5.290983259447248 -21.494963815751625 3.764487690023196 -19.635748481847024 1.5917140504377376 -17.77653314794242 -0.5810595891477206 -16.0222861565105 -2.3416514420980947 -14.26803916507858 -4.102243295048469 -12.707551883173712 -5.25473729412335 -11.147064601268845 -6.407231293198232 -9.431150550335783 -7.412417533565856 -7.715236499402719 -8.41760377393348 -5.891436706987702 -8.966058428606246 -4.0676369145726845 -9.51451308327901 -2.4602973598699664 -9.32282215977721 -0.8529578051672484 -9.13113123627541 0.4757119476470901 -8.250825186166455 1.8043817004614287 -7.370519136057503 2.5592147859653953 -5.359717483446996 3.314047871469362 -3.3489158308364884 3.2886984278534586 -2.0745438054967864 3.2633489842375556 -0.8001717801570842 3.093027665625554 0.12043146729616871 2.922706347013552 1.0410347147494217 2.3376602994304134 1.8005865891360764 1.7526142518472745 2.560138463522731 0.8328486667450403 2.8307473993295105 -0.08691691835719384 3.1013563351362903 -0.990082849151904 2.779658916544443 -1.8932487799466142 2.4579614979525957 -2.4348363683511556 1.6668352047711057 -2.9764239567556974 0.8757089115896156 -2.779243833272623 -1.0032661490331558 Z"></path></g></svg>